<svg width="34" height="34" viewBox="0 0 34 34" fill="none" xmlns="http://www.w3.org/2000/svg">
<path d="M30.8476 10.0456H23.7731V2.97101C23.7731 1.67586 22.7231 0.625854 21.428 0.625854H12.0083C10.7131 0.625854 9.6631 1.67586 9.6631 2.97101V10.0456H2.58856C1.29341 10.0456 0.243408 11.0956 0.243408 12.3907V21.8104C0.243408 23.1056 1.29341 24.1556 2.58856 24.1556H9.6631V31.2301C9.6631 32.5253 10.7131 33.5753 12.0083 33.5753H21.428C22.7231 33.5753 23.7731 32.5253 23.7731 31.2301V24.1556H30.8476C32.1428 24.1556 33.1928 23.1056 33.1928 21.8104V12.3907C33.1928 11.0956 32.1428 10.0456 30.8476 10.0456ZM28.5025 19.4653H21.428C20.1328 19.4653 19.0828 20.5153 19.0828 21.8104V28.885H14.3534V21.8104C14.3534 20.5153 13.3034 19.4653 12.0083 19.4653H4.93371V14.7359H12.0083C13.3034 14.7359 14.3534 13.6859 14.3534 12.3907V5.31616H19.0828V12.3907C19.0828 13.6859 20.1328 14.7359 21.428 14.7359H28.5025V19.4653Z" fill="white"/>
</svg>
